<?xml version="1.0" encoding="iso-8859-1"?>
<!-- Uploaded to: SVG Repo, www.svgrepo.com, Generator: SVG Repo Mixer Tools -->
<!DOCTYPE svg PUBLIC "-//W3C//DTD SVG 1.1//EN" "http://www.w3.org/Graphics/SVG/1.1/DTD/svg11.dtd">
<svg fill="#000000" height="800px" width="800px" version="1.1" id="Capa_1" xmlns="http://www.w3.org/2000/svg" xmlns:xlink="http://www.w3.org/1999/xlink" 
	 viewBox="0 0 321.658 321.658" xml:space="preserve">
<g>
	<path d="M140.356,264.138c-5.605,0-11.229-0.451-16.711-1.341c-10.905-1.773-21.176,5.633-22.946,16.536
		c-1.771,10.903,5.633,21.177,16.536,22.947c7.595,1.233,15.374,1.859,23.121,1.859c11.046,0,20-8.954,20-20
		S151.402,264.138,140.356,264.138z"/>
	<path d="M39.525,183.435c-2.403-10.781-13.093-17.57-23.874-15.167c-10.78,2.404-17.571,13.093-15.167,23.874
		c3.824,17.15,10.711,33.285,20.469,47.958c3.852,5.792,10.201,8.927,16.672,8.927c3.804,0,7.651-1.083,11.057-3.348
		c9.197-6.117,11.695-18.531,5.578-27.729C47.234,207.384,42.276,195.771,39.525,183.435z"/>
	<path d="M59.052,42.803C44.594,52.778,32.211,65.172,22.25,79.64c-6.265,9.098-3.967,21.551,5.131,27.815
		c3.464,2.385,7.413,3.529,11.324,3.529c6.358,0,12.611-3.026,16.49-8.66c7.192-10.446,16.133-19.395,26.572-26.598
		c9.092-6.273,11.377-18.728,5.104-27.82C80.6,38.815,68.146,36.53,59.052,42.803z"/>
	<path d="M320.581,160.63c-1.693-3.051-5.097-4.801-9.337-4.801h-27.673c-0.019-0.561-0.042-1.122-0.068-1.683
		c-0.02-0.435-0.042-0.869-0.066-1.303c-0.04-0.719-0.087-1.438-0.137-2.157c-0.028-0.394-0.052-0.788-0.083-1.181
		c-0.085-1.083-0.18-2.165-0.289-3.244c-0.014-0.14-0.032-0.278-0.046-0.418c-0.103-0.991-0.217-1.98-0.34-2.967
		c-0.032-0.258-0.068-0.515-0.101-0.772c-0.12-0.918-0.248-1.834-0.386-2.748c-0.029-0.195-0.058-0.389-0.089-0.583
		c-0.055-0.354-0.104-0.71-0.162-1.064c-0.017-0.106-0.048-0.207-0.067-0.313c-6.532-39.545-29.302-73.684-61.218-95.301
		c-0.332-0.251-0.654-0.51-1.006-0.743c-14.682-9.743-30.823-16.615-47.977-20.423c-0.133-0.03-0.265-0.041-0.398-0.068
		c-9.92-2.18-20.218-3.34-30.783-3.34c-11.046,0-20,8.954-20,20s8.954,20,20,20c8.002,0,15.795,0.915,23.279,2.645
		c0.902,0.208,1.798,0.432,2.692,0.663c39.385,10.236,69.708,43.183,76.091,83.963c0.159,1.024,0.308,2.051,0.436,3.083
		c0.046,0.367,0.084,0.737,0.127,1.106c0.11,0.968,0.209,1.938,0.293,2.911c0.022,0.25,0.047,0.5,0.067,0.751
		c0.083,1.06,0.141,2.124,0.192,3.187h-28.288c-4.24,0-7.644,1.75-9.337,4.801c-1.689,3.042-1.379,6.841,0.852,10.423l47.482,76.207
		c2.178,3.496,5.455,5.5,8.994,5.5c3.544,0,6.828-2.01,9.011-5.514l47.483-76.193C321.96,167.471,322.271,163.672,320.581,160.63z"
		/>
</g>
</svg>